<?xml version="1.0" encoding="UTF-8"?>
<svg width="120" height="120" viewBox="0 0 120 120" fill="none" xmlns="http://www.w3.org/2000/svg">
  <style>
    .chili { fill: hsla(0, 68%, 27%, 0.05); }
    .spice { fill: hsla(25, 70%, 45%, 0.05); }
  </style>
  <!-- Chili Pepper Pattern -->
  <g class="chili">
    <path d="M30,40 C30,40 25,45 28,50 C31,55 35,60 35,65 C35,70 30,80 35,85 C40,90 45,85 45,80 C45,75 40,70 40,65 C40,60 45,55 42,50 C39,45 35,45 30,40Z"/>
    <path d="M90,100 C90,100 85,105 88,110 C91,115 95,120 95,125 C95,130 90,140 95,145 C100,150 105,145 105,140 C105,135 100,130 100,125 C100,120 105,115 102,110 C99,105 95,105 90,100Z"/>
  </g>
  <!-- Spice Dots Pattern -->
  <g class="spice">
    <circle cx="20" cy="20" r="3"/>
    <circle cx="60" cy="20" r="3"/>
    <circle cx="100" cy="20" r="3"/>
    <circle cx="40" cy="40" r="3"/>
    <circle cx="80" cy="40" r="3"/>
    <circle cx="20" cy="60" r="3"/>
    <circle cx="60" cy="60" r="3"/>
    <circle cx="100" cy="60" r="3"/>
    <circle cx="40" cy="80" r="3"/>
    <circle cx="80" cy="80" r="3"/>
    <circle cx="20" cy="100" r="3"/>
    <circle cx="60" cy="100" r="3"/>
    <circle cx="100" cy="100" r="3"/>
  </g>
</svg>
